<mxfile host="app.diagrams.net" agent="Mozilla/5.0 (X11; Ubuntu; Linux x86_64; rv:134.0) Gecko/20100101 Firefox/134.0" version="26.0.5">
  <diagram id="C5RBs43oDa-KdzZeNtuy" name="Page-1">
    <mxGraphModel dx="2002" dy="1315" grid="1" gridSize="10" guides="1" tooltips="1" connect="1" arrows="1" fold="1" page="1" pageScale="1" pageWidth="827" pageHeight="1169" math="0" shadow="0">
      <root>
        <mxCell id="WIyWlLk6GJQsqaUBKTNV-0" />
        <mxCell id="WIyWlLk6GJQsqaUBKTNV-1" parent="WIyWlLk6GJQsqaUBKTNV-0" />
        <mxCell id="b-tEYRFM_egktAxX05Cy-1" value="PC&lt;br&gt;(Master)" style="whiteSpace=wrap;html=1;aspect=fixed;" vertex="1" parent="WIyWlLk6GJQsqaUBKTNV-1">
          <mxGeometry x="340" y="490" width="140" height="140" as="geometry" />
        </mxCell>
        <mxCell id="b-tEYRFM_egktAxX05Cy-3" value="Arduino&lt;br&gt;(Slave)" style="rounded=0;whiteSpace=wrap;html=1;" vertex="1" parent="WIyWlLk6GJQsqaUBKTNV-1">
          <mxGeometry x="340" y="240" width="140" height="60" as="geometry" />
        </mxCell>
        <mxCell id="b-tEYRFM_egktAxX05Cy-4" value="" style="endArrow=classic;html=1;rounded=0;entryX=0.5;entryY=1;entryDx=0;entryDy=0;exitX=0.5;exitY=0;exitDx=0;exitDy=0;" edge="1" parent="WIyWlLk6GJQsqaUBKTNV-1">
          <mxGeometry width="50" height="50" relative="1" as="geometry">
            <mxPoint x="360" y="490" as="sourcePoint" />
            <mxPoint x="360" y="300" as="targetPoint" />
          </mxGeometry>
        </mxCell>
        <mxCell id="b-tEYRFM_egktAxX05Cy-5" value="Modbus RTU" style="text;html=1;align=center;verticalAlign=middle;whiteSpace=wrap;rounded=0;rotation=0;" vertex="1" parent="WIyWlLk6GJQsqaUBKTNV-1">
          <mxGeometry x="190" y="387" width="74" height="30" as="geometry" />
        </mxCell>
        <mxCell id="b-tEYRFM_egktAxX05Cy-7" value="" style="endArrow=classic;html=1;rounded=0;exitX=0.857;exitY=1;exitDx=0;exitDy=0;exitPerimeter=0;entryX=0.857;entryY=-0.021;entryDx=0;entryDy=0;entryPerimeter=0;" edge="1" parent="WIyWlLk6GJQsqaUBKTNV-1" source="b-tEYRFM_egktAxX05Cy-3">
          <mxGeometry width="50" height="50" relative="1" as="geometry">
            <mxPoint x="459" y="306.96" as="sourcePoint" />
            <mxPoint x="459.98" y="489.99999999999994" as="targetPoint" />
          </mxGeometry>
        </mxCell>
        <mxCell id="b-tEYRFM_egktAxX05Cy-8" value="Thanh ghi phanh động cơ" style="text;html=1;align=center;verticalAlign=middle;whiteSpace=wrap;rounded=0;rotation=-90;" vertex="1" parent="WIyWlLk6GJQsqaUBKTNV-1">
          <mxGeometry x="295" y="387" width="90" height="30" as="geometry" />
        </mxCell>
        <mxCell id="b-tEYRFM_egktAxX05Cy-9" value="PC alive" style="text;html=1;align=center;verticalAlign=middle;whiteSpace=wrap;rounded=0;rotation=-90;" vertex="1" parent="WIyWlLk6GJQsqaUBKTNV-1">
          <mxGeometry x="330" y="387" width="90" height="30" as="geometry" />
        </mxCell>
        <mxCell id="b-tEYRFM_egktAxX05Cy-10" value="Arduino alive" style="text;html=1;align=center;verticalAlign=middle;whiteSpace=wrap;rounded=0;rotation=-90;" vertex="1" parent="WIyWlLk6GJQsqaUBKTNV-1">
          <mxGeometry x="430" y="380" width="90" height="30" as="geometry" />
        </mxCell>
        <mxCell id="b-tEYRFM_egktAxX05Cy-11" value="Các thanh ghi trạng thái IO" style="text;html=1;align=center;verticalAlign=middle;whiteSpace=wrap;rounded=0;rotation=-90;" vertex="1" parent="WIyWlLk6GJQsqaUBKTNV-1">
          <mxGeometry x="400" y="380" width="90" height="30" as="geometry" />
        </mxCell>
      </root>
    </mxGraphModel>
  </diagram>
</mxfile>
